HIERARCHY
ROOT Hips
{
	OFFSET -3.958830 18.904000 13.208200
	CHANNELS 6 Xposition Yposition Zposition Zrotation Yrotation Xrotation 
	JOINT LHipJoint
	{
		OFFSET 0.000000 0.000000 0.000000
		CHANNELS 3 Zrotation Yrotation Xrotation
		JOINT LeftUpLeg
		{
			OFFSET 1.800000 -1.400000 0.085000
			CHANNELS 3 Zrotation Yrotation Xrotation
			JOINT LeftLeg
			{
				OFFSET 2.215000 -6.000000 0.000000
				CHANNELS 3 Zrotation Yrotation Xrotation
				JOINT LeftFoot
				{
					OFFSET 2.500000 -6.900000 0.000000
					CHANNELS 3 Zrotation Yrotation Xrotation
					JOINT LeftToeBase
					{
						OFFSET 0.200000 -0.500000 1.950000
						CHANNELS 3 Zrotation Yrotation Xrotation
						End Site
						{
							OFFSET 0.000000 0.000000 0.000000
						}
					}
				}
			}
		}
	}
	JOINT RHipJoint
	{
		OFFSET 0.000000 0.000000 0.000000
		CHANNELS 3 Zrotation Yrotation Xrotation
		JOINT RightUpLeg
		{
			OFFSET -1.800000 -1.400000 0.085000
			CHANNELS 3 Zrotation Yrotation Xrotation
			JOINT RightLeg
			{
				OFFSET -2.215000 -6.000000 0.000000
				CHANNELS 3 Zrotation Yrotation Xrotation
				JOINT RightFoot
				{
					OFFSET -2.500000 -6.900000 0.000000
					CHANNELS 3 Zrotation Yrotation Xrotation
					JOINT RightToeBase
					{
						OFFSET -0.200000 -0.500000 1.950000
						CHANNELS 3 Zrotation Yrotation Xrotation
						End Site
						{
							OFFSET 0.000000 0.000000 0.000000
						}
					}
				}
			}
		}
	}
	JOINT LowerBack
	{
		OFFSET 0.000000 0.000000 0.000000
		CHANNELS 3 Zrotation Yrotation Xrotation
		JOINT Spine
		{
			OFFSET -0.087000 1.940000 -0.288900
			CHANNELS 3 Zrotation Yrotation Xrotation
			JOINT Spine1
			{
				OFFSET 0.000000 1.950000 0.060000
				CHANNELS 3 Zrotation Yrotation Xrotation
				JOINT Neck
				{
					OFFSET 0.000000 0.000000 0.000000
					CHANNELS 3 Zrotation Yrotation Xrotation
					JOINT Neck1
					{
						OFFSET 0.000000 1.600000 0.340000
						CHANNELS 3 Zrotation Yrotation Xrotation
						JOINT Head
						{
							OFFSET 0.000000 1.667000 -0.240000
							CHANNELS 3 Zrotation Yrotation Xrotation
							End Site
							{
								OFFSET 0.000000 0.000000 0.000000
							}
						}
					}
				}
				JOINT LeftShoulder
				{
					OFFSET 0.000000 0.000000 0.000000
					CHANNELS 3 Zrotation Yrotation Xrotation
					JOINT LeftArm
					{
						OFFSET 2.700000 1.550000 -0.730000
						CHANNELS 3 Zrotation Yrotation Xrotation
						JOINT LeftForeArm
						{
							OFFSET 5.450000 0.000000 0.000000
							CHANNELS 3 Zrotation Yrotation Xrotation
							JOINT LeftHand
							{
								OFFSET 3.450000 0.000000 0.000000
								CHANNELS 3 Zrotation Yrotation Xrotation
								JOINT LeftHandIndex1
								{
									OFFSET 0.750000 0.000000 0.000000
									CHANNELS 3 Zrotation Yrotation Xrotation
									End Site
									{
										OFFSET 0.000000 0.000000 0.000000
									}
								}
							}
						}
					}
				}
				JOINT RightShoulder
				{
					OFFSET 0.000000 0.000000 0.000000
					CHANNELS 3 Zrotation Yrotation Xrotation
					JOINT RightArm
					{
						OFFSET -2.700000 1.550000 -0.730000
						CHANNELS 3 Zrotation Yrotation Xrotation
						JOINT RightForeArm
						{
							OFFSET -5.450000 0.000000 0.000000
							CHANNELS 3 Zrotation Yrotation Xrotation
							JOINT RightHand
							{
								OFFSET -3.450000 0.000000 0.000000
								CHANNELS 3 Zrotation Yrotation Xrotation
								JOINT RightHandIndex1
								{
									OFFSET -0.750000 0.000000 0.000000
									CHANNELS 3 Zrotation Yrotation Xrotation
									End Site
									{
										OFFSET 0.000000 0.000000 0.000000
									}
								}
							}
						}
					}
				}
			}
		}
	}
}
MOTION
Frames: 10
Frame Time: 0.016667
-0.047870 16.486710 -0.752880 -5.383547 -29.002553 -1.758244 -15.403787 15.440147 2.974014 11.220185 -1.366966 -16.908363 0.180536 6.598025 25.649513 -0.078141 4.738283 2.845377 0.064150 -0.160660 0.081410 17.687898 -10.607544 2.435101 -7.893807 2.090568 -18.154123 2.083695 -4.923149 24.142819 -0.044123 -3.060396 3.494467 -0.179050 0.044530 -0.097780 -1.538603 -5.740452 -7.566251 -0.986880 0.185997 17.772639 11.519518 2.472212 -10.907058 -0.051114 -8.537130 -7.798129 -21.876585 18.356344 34.776434 1.120480 14.634780 -7.039260 -22.683133 9.157399 2.153494 -45.591066 11.102166 -12.969535 48.355189 -77.108682 -38.068547 -3.088484 2.210230 0.520050 -0.108840 -0.017400 0.054860 25.903329 -1.847947 4.216771 42.459295 -11.218168 -15.274559 -22.385845 49.548845 -6.867485 2.110341 -1.315777 -0.219150 0.134330 0.032990 -0.226730 
-0.070080 16.489750 -0.767010 -4.711736 -27.615492 -2.138267 -15.411786 15.428635 2.912541 9.554853 -1.596693 -17.152735 2.611701 5.600653 25.782369 -0.116169 4.469584 2.949688 0.054910 -0.186340 0.113830 17.668637 -10.685867 2.471116 -9.166109 2.027951 -18.683115 3.514014 -5.560830 24.836761 -0.056087 -3.268339 3.398831 -0.193420 0.016170 -0.086250 -1.526942 -5.571241 -7.561226 -2.068059 1.086731 17.957484 12.073018 3.020674 -10.045709 -0.067315 -7.367005 -7.924641 -18.817490 15.472494 35.671863 -0.740270 13.927730 -7.071640 -22.251996 7.508940 2.196390 -42.030041 9.072760 -9.643598 11.477118 -75.951075 -11.622819 -3.326915 3.054093 0.513640 -0.099830 -0.015850 0.033650 25.579387 -0.963140 4.802681 46.057389 -12.840242 -17.645082 -29.959145 53.337581 -11.173995 2.026336 -1.252973 -0.215720 0.104610 0.027280 -0.247530 
-0.092640 16.482310 -0.782830 -4.000249 -26.012702 -2.353737 -15.406708 15.300873 2.872413 7.817610 -1.921334 -17.666678 5.003706 4.681127 26.395393 -0.142002 4.320184 3.022556 0.031640 -0.217610 0.129360 17.676074 -10.798459 2.507964 -10.458947 1.908795 -19.285447 4.731070 -6.116521 25.227715 -0.050635 -3.479134 3.311026 -0.199080 0.025710 -0.077430 -1.602276 -5.156004 -7.532854 -3.106634 2.098760 17.739494 12.178478 3.574656 -8.985034 -0.268962 -5.586021 -7.848029 -14.339571 12.313883 35.825154 -2.025490 13.224570 -6.382580 -22.093468 5.526278 2.261816 -37.847544 7.130820 -6.873585 -17.040615 -73.983248 8.863408 -3.477850 3.280102 0.481570 -0.058770 -0.038080 0.019950 25.728695 -0.193965 5.084736 49.474034 -13.851818 -19.461909 -37.073986 53.994881 -14.978690 1.962439 -1.183539 -0.226390 0.090420 0.027060 -0.260750 
-0.108670 16.469540 -0.798120 -3.630801 -24.237093 -2.027283 -15.395456 15.076000 2.864569 6.353979 -2.359688 -18.745913 7.162205 3.863804 27.300826 -0.174681 4.285597 3.049335 -0.015280 -0.274030 0.123470 17.707205 -10.884815 2.562543 -11.419729 1.840736 -20.044363 5.974084 -6.608688 25.145165 -0.025392 -3.658016 3.234753 -0.208080 0.059080 -0.059710 -1.749092 -4.608778 -7.502248 -3.434577 3.050923 17.363970 11.751205 4.205233 -8.035984 -0.340080 -3.377634 -7.633790 -9.209908 9.008945 34.781947 -3.592770 12.643620 -5.524640 -22.262708 3.730757 2.284184 -34.327667 5.255620 -4.662028 -39.423239 -73.440918 25.097573 -3.640201 3.349776 0.438170 0.007830 -0.081480 -0.002840 25.817884 0.120781 5.004942 52.605129 -13.988027 -20.245771 -42.569091 51.998210 -17.105486 1.932130 -1.157993 -0.248700 0.076440 0.052150 -0.276590 
-0.126520 16.456490 -0.804380 -3.419040 -22.388207 -1.381875 -15.377195 14.793537 2.865077 5.165214 -2.801003 -19.881153 8.943603 3.157190 28.036964 -0.203733 4.289252 3.058839 -0.043960 -0.313320 0.123370 17.756454 -10.965600 2.612992 -12.237920 1.775409 -20.697363 7.163553 -7.017836 24.727729 -0.002782 -3.813336 3.162018 -0.205650 0.094740 -0.031530 -1.941805 -3.970218 -7.444519 -3.452989 3.899287 16.588181 10.992126 4.800774 -7.163736 -0.365699 -1.084561 -7.469253 -4.299431 6.135903 32.953725 -4.567080 11.990670 -4.631980 -22.461052 2.284164 2.405071 -31.824460 3.612330 -2.692251 -60.903546 -74.091027 41.888447 -3.836566 3.317574 0.390750 0.076110 -0.125370 -0.019630 25.785622 0.048315 4.647908 54.944472 -13.608329 -20.020634 -44.195629 48.453263 -16.707053 1.941183 -1.220695 -0.262790 0.055240 0.072020 -0.289710 
-0.134230 16.448400 -0.811830 -3.698437 -20.497562 -0.873401 -15.344672 14.542373 2.865166 4.724983 -3.117423 -20.936164 10.165250 2.687900 28.788077 -0.229917 4.344044 3.039886 -0.048540 -0.327090 0.138130 17.811525 -11.052065 2.659779 -12.532277 1.765451 -20.861904 8.110375 -7.294533 24.214051 0.003525 -3.919731 3.112049 -0.192880 0.110040 -0.011220 -2.151469 -3.363326 -7.414275 -2.472872 4.624658 16.242722 9.907497 5.497647 -6.109106 -0.199487 0.798871 -7.759403 -0.508654 3.754874 31.586785 -5.126520 11.151890 -4.198990 -23.179771 0.217234 2.745746 -30.403285 2.665580 -1.665526 -84.115589 -74.622783 61.053583 -4.064391 3.004433 0.365460 0.119330 -0.150220 -0.031540 25.807067 0.927734 4.675443 56.605604 -13.175892 -19.570764 -43.699754 44.012524 -15.158029 1.973609 -1.305515 -0.272520 0.041900 0.079930 -0.305120 
-0.145990 16.436180 -0.817260 -4.080865 -18.902449 -0.235346 -15.299352 14.311464 2.875757 4.615235 -3.368012 -22.092988 10.955061 2.406599 29.656945 -0.252504 4.451382 3.004504 -0.042830 -0.325620 0.145390 17.880863 -11.143696 2.676955 -12.302415 1.800878 -20.960551 8.232838 -7.217931 23.589386 0.025726 -3.916677 3.105268 -0.166300 0.140020 0.004080 -2.386108 -2.793830 -7.359442 -1.168493 5.112624 15.706146 8.551089 6.020816 -5.137152 -0.094103 1.992980 -7.944215 2.015996 2.096246 29.649246 -5.016600 10.088960 -3.786640 -23.987476 -1.642244 2.871273 -29.539814 2.652572 -2.318745 -107.557762 -72.250957 81.725516 -4.051369 2.857928 0.334640 0.161180 -0.181220 -0.032600 25.993564 1.912936 4.799559 57.360324 -12.636267 -18.721568 -40.983482 40.048057 -12.958658 1.998474 -1.387902 -0.284060 0.043090 0.086150 -0.309600 
-0.159230 16.428910 -0.817700 -4.293475 -17.483979 0.195179 -15.266509 14.144270 2.878936 4.679517 -3.452535 -22.931246 11.262780 2.321885 30.190090 -0.276825 4.529789 2.980369 -0.036740 -0.318680 0.140870 17.927779 -11.219736 2.690045 -12.261947 1.850255 -20.930998 8.317295 -7.129441 23.011911 0.046483 -3.911136 3.108897 -0.139710 0.169320 0.008230 -2.552468 -2.354245 -7.327446 -0.137830 5.602425 15.281136 7.495961 6.572498 -4.283809 0.053000 2.645355 -8.199543 3.466789 0.782584 28.058311 -4.743650 8.882120 -3.464940 -25.250314 -3.053201 3.368334 -29.555648 3.314013 -2.621999 -129.346446 -69.346949 103.588272 -3.907876 3.137338 0.311250 0.193000 -0.209570 -0.027690 26.647823 3.072174 5.008791 56.847061 -12.348647 -17.656642 -37.401938 36.670033 -10.755855 2.013995 -1.446124 -0.296820 0.055720 0.092720 -0.309040 
-0.174270 16.420480 -0.814520 -4.712477 -16.084694 0.646415 -15.210737 14.012079 2.882871 5.256292 -3.407829 -23.757363 10.888691 2.511793 30.602109 -0.289146 4.596786 2.954052 -0.025150 -0.297520 0.126480 17.986124 -11.313425 2.705951 -11.814837 1.953268 -20.759703 8.059203 -6.939238 22.592254 0.062973 -3.872263 3.129216 -0.113570 0.196910 0.013690 -2.758064 -1.942528 -7.323990 1.556287 5.761036 15.067268 6.034666 6.925698 -3.782710 0.179894 2.670595 -8.326412 3.797448 -0.157368 26.682341 -4.123560 7.398430 -3.364750 -26.806523 -3.664040 3.767252 -29.878255 4.091491 -2.453629 -146.754629 -66.666508 123.033952 -3.876179 3.315178 0.281470 0.214900 -0.230770 -0.018340 27.613303 3.907313 5.089623 55.575146 -12.063410 -16.561247 -33.260920 34.575247 -8.932184 2.019733 -1.474827 -0.293220 0.070130 0.098670 -0.294210 
-0.195450 16.409710 -0.817660 -5.077973 -15.097099 0.874141 -15.164909 13.924502 2.894576 6.251314 -3.253267 -24.528257 9.931574 3.007049 31.359340 -0.292175 4.741395 2.890442 0.000690 -0.263100 0.124260 18.031759 -11.405493 2.695561 -11.091464 2.093431 -20.582924 7.116761 -6.605020 22.626247 0.067311 -3.800807 3.156168 -0.086170 0.206830 0.023740 -2.913824 -1.616923 -7.325368 2.967227 5.916194 15.068797 4.899146 7.287702 -3.254909 0.336281 2.411498 -8.454625 3.586147 -0.797059 25.833485 -3.641510 6.151430 -3.822370 -28.282674 -4.079128 4.285808 -31.555156 4.702611 -2.465204 -162.883867 -63.488720 143.261737 -3.866633 3.407441 0.271310 0.219250 -0.231030 -0.005210 28.494573 4.869126 5.036843 53.579376 -11.025468 -14.670600 -28.371734 30.522471 -6.607862 2.063419 -1.495611 -0.283740 0.080930 0.095340 -0.281310 
